HIERARCHY
ROOT Hips
{
	OFFSET 0.000000 0.000000 0.000000
	CHANNELS 6 Xposition Yposition Zposition Xrotation Yrotation Zrotation
	JOINT LeftUpLeg_virtual
	{
		OFFSET 0.000000 0.000000 0.000000
		CHANNELS 3 Xrotation Yrotation Zrotation
		JOINT LeftUpLeg
		{
			OFFSET 15.427100 -6.655098 0.678600
			CHANNELS 3 Xrotation Yrotation Zrotation
			JOINT LeftLeg
			{
				OFFSET 4.081073 -39.591068 13.024000
				CHANNELS 3 Xrotation Yrotation Zrotation
				JOINT LeftFoot
				{
					OFFSET -4.081074 -37.707932 -15.979700
					CHANNELS 3 Xrotation Yrotation Zrotation
					JOINT LeftToeBase
					{
						OFFSET 5.346399 -15.068900 20.645000
						CHANNELS 3 Xrotation Yrotation Zrotation
						JOINT LeftToe_End
						{
							OFFSET 2.754700 0.931300 11.300900
							CHANNELS 3 Xrotation Yrotation Zrotation
							End Site
							{
								OFFSET 0 0 0
							}
						}
					}
				}
			}
		}
	}
	JOINT RightUpLeg_virtual
	{
		OFFSET 0.000000 0.000000 0.000000
		CHANNELS 3 Xrotation Yrotation Zrotation
		JOINT RightUpLeg
		{
			OFFSET -15.569500 -6.655098 0.678600
			CHANNELS 3 Xrotation Yrotation Zrotation
			JOINT RightLeg
			{
				OFFSET -4.081825 -39.591045 13.023800
				CHANNELS 3 Xrotation Yrotation Zrotation
				JOINT RightFoot
				{
					OFFSET 4.081824 -37.707954 -15.979600
					CHANNELS 3 Xrotation Yrotation Zrotation
					JOINT RightToeBase
					{
						OFFSET -5.346400 -15.068900 20.645000
						CHANNELS 3 Xrotation Yrotation Zrotation
						JOINT RightToe_End
						{
							OFFSET -2.754700 0.931300 11.300900
							CHANNELS 3 Xrotation Yrotation Zrotation
							End Site
							{
								OFFSET 0 0 0
							}
						}
					}
				}
			}
		}
	}
	JOINT Spine_virtual
	{
		OFFSET 0.000000 0.000000 0.000000
		CHANNELS 3 Xrotation Yrotation Zrotation
		JOINT Spine
		{
			OFFSET -0.279200 12.230698 -2.892100
			CHANNELS 3 Xrotation Yrotation Zrotation
			JOINT Spine1
			{
				OFFSET -0.232667 10.192268 -1.242267
				CHANNELS 3 Xrotation Yrotation Zrotation
				JOINT Spine1_split
				{
					OFFSET -0.232667 10.192268 -1.242267
					CHANNELS 3 Xrotation Yrotation Zrotation
					JOINT Spine2
					{
						OFFSET -0.232667 10.192268 -1.242267
						CHANNELS 3 Xrotation Yrotation Zrotation
						JOINT Neck_virtual
						{
							OFFSET 0.000000 0.000000 0.000000
							CHANNELS 3 Xrotation Yrotation Zrotation
							JOINT Neck
							{
								OFFSET -0.418800 17.814194 8.416900
								CHANNELS 3 Xrotation Yrotation Zrotation
								JOINT Head
								{
									OFFSET 0.000000 7.031097 3.806800
									CHANNELS 3 Xrotation Yrotation Zrotation
									JOINT HeadTop_End
									{
										OFFSET 0.000000 24.646606 12.978600
										CHANNELS 3 Xrotation Yrotation Zrotation
										End Site
										{
											OFFSET 0 0 0
										}
									}
								}
							}
						}
						JOINT LeftShoulder_virtual
						{
							OFFSET 0.000000 0.000000 0.000000
							CHANNELS 3 Xrotation Yrotation Zrotation
							JOINT LeftShoulder
							{
								OFFSET 8.476499 7.247704 -3.868750
								CHANNELS 3 Xrotation Yrotation Zrotation
								JOINT LeftShoulder_split
								{
									OFFSET 8.476499 7.247704 -3.868750
									CHANNELS 3 Xrotation Yrotation Zrotation
									JOINT LeftArm
									{
										OFFSET 9.308998 -2.777710 0.208600
										CHANNELS 3 Xrotation Yrotation Zrotation
										JOINT LeftForeArm
										{
											OFFSET 29.972298 0.000000 0.000000
											CHANNELS 3 Xrotation Yrotation Zrotation
											JOINT LeftHand
											{
												OFFSET 26.026505 0.000000 0.000000
												CHANNELS 3 Xrotation Yrotation Zrotation
												End Site
												{
													OFFSET 0 0 0
												}
											}
										}
									}
								}
							}
						}
						JOINT RightShoulder_virtual
						{
							OFFSET 0.000000 0.000000 0.000000
							CHANNELS 3 Xrotation Yrotation Zrotation
							JOINT RightShoulder
							{
								OFFSET -7.570500 7.247704 -3.868750
								CHANNELS 3 Xrotation Yrotation Zrotation
								JOINT RightShoulder_split
								{
									OFFSET -7.570500 7.247704 -3.868750
									CHANNELS 3 Xrotation Yrotation Zrotation
									JOINT RightArm
									{
										OFFSET -9.308998 -2.777710 0.208500
										CHANNELS 3 Xrotation Yrotation Zrotation
										JOINT RightForeArm
										{
											OFFSET -29.972300 0.000000 0.000000
											CHANNELS 3 Xrotation Yrotation Zrotation
											JOINT RightHand
											{
												OFFSET -26.026505 0.000000 0.000000
												CHANNELS 3 Xrotation Yrotation Zrotation
												End Site
												{
													OFFSET 0 0 0
												}
											}
										}
									}
								}
							}
						}
					}
				}
			}
		}
	}
}
MOTION
Frames: 4
Frame Time: 0.03333333
0.146719 80.089493 -0.585442 0.000000 0.000000 0.000000 -10.683277 -53.648370 -2.320325 -23.680833 13.542996 23.466032 38.770695 -5.719375 -1.759428 -5.507392 2.800327 -17.134675 -2.483934 0.000010 0.000001 0.000000 0.000000 0.000000 -10.683277 -53.648370 -2.320325 -23.526781 0.509295 -23.974278 49.497732 5.410733 -7.103826 -17.680715 -4.772994 18.315118 -2.290964 0.000028 0.000001 0.000000 0.000000 0.000000 -10.683277 -53.648370 -2.320325 6.704560 0.922915 -2.753182 13.440118 1.505914 -5.282123 0.000000 0.000000 0.000000 0.000000 0.000000 0.000000 13.440116 1.505927 -5.282122 3.996212 2.607473 -0.466377 -8.638510 40.681338 -5.376926 0.000000 0.000000 0.000000 13.440116 1.505927 -5.282122 -0.177270 -6.033953 5.204532 0.000000 0.000000 0.000000 -21.071661 17.785760 -57.231487 179.999991 -53.681250 -180.000005 0.000000 0.000000 0.000000 13.440116 1.505927 -5.282122 10.920036 26.931047 3.130399 0.000000 0.000000 0.000000 -46.478170 38.185863 48.496092 179.999991 69.435505 179.999991 0.000000 0.000000 0.000000 
-0.987075 80.371750 -2.293896 0.000000 0.000000 0.000000 -10.733182 -52.142883 -1.095318 -22.680611 12.481080 21.856219 36.070588 -5.866975 -0.354129 -3.211387 3.619024 -18.801113 -5.669399 0.000005 -0.000000 0.000000 0.000000 0.000000 -10.733182 -52.142883 -1.095318 -23.079568 0.083336 -23.832248 50.876959 4.576551 -6.522099 -19.837168 -5.779730 14.709157 -1.965096 0.000001 -0.000003 0.000000 0.000000 0.000000 -10.733182 -52.142883 -1.095318 7.707272 0.259525 -4.249688 13.471024 1.247501 -5.375648 0.000000 0.000000 0.000000 0.000000 0.000000 0.000000 13.463741 1.291654 -5.383122 3.970779 2.575110 -0.513150 -6.939622 39.500295 -7.024655 0.000000 0.000000 0.000000 13.463741 1.291654 -5.383122 -0.604219 -6.510280 2.042945 0.000000 0.000000 0.000000 -15.274325 19.486412 -56.458088 -179.999991 -51.120380 -179.999991 0.000000 0.000000 0.000000 13.463741 1.291654 -5.383122 10.874065 26.686423 2.331216 0.000000 0.000000 0.000000 -47.669878 38.728969 52.535660 179.999991 74.887328 -179.999964 0.000000 0.000000 0.000000 
-1.978163 80.752899 -4.620110 0.000000 0.000000 0.000000 -9.890979 -48.561142 0.574602 -24.857113 8.638752 20.644037 34.391331 -4.400035 2.166301 4.629589 0.792782 -23.016973 -8.253303 -0.000003 0.000007 0.000000 0.000000 0.000000 -9.890979 -48.561142 0.574602 -22.167560 -0.772616 -23.384437 51.796873 4.196440 -5.199784 -21.496231 -8.567659 11.187706 -2.401854 0.000027 -0.000005 0.000000 0.000000 0.000000 -9.890979 -48.561142 0.574602 11.217454 0.357672 -5.624400 13.743579 1.075073 -5.733798 0.000000 0.000000 0.000000 0.000000 0.000000 0.000000 13.747229 1.106295 -5.720674 3.149085 2.157394 -0.468781 -10.603135 33.243924 -7.617211 0.000000 0.000000 0.000000 13.747229 1.106295 -5.720674 -0.478515 -7.847203 1.562680 0.000000 0.000000 0.000000 -13.760015 17.595793 -53.833772 -179.999978 -49.527034 -179.999978 0.000000 0.000000 0.000000 13.747229 1.106295 -5.720674 10.980234 26.274286 0.074713 0.000000 0.000000 0.000000 -50.899929 37.184001 56.537728 -179.999677 80.068723 179.999650 0.000000 0.000000 0.000000 
-2.924634 81.223450 -7.738201 0.000000 0.000000 0.000000 -8.629178 -42.378984 2.397402 -31.025564 2.817365 19.048790 32.140090 -5.168681 4.524029 20.871316 -5.794513 -25.982649 -15.374005 -0.007466 0.077698 0.000000 0.000000 0.000000 -8.629178 -42.378984 2.397402 -21.635703 -2.168406 -22.880321 53.036071 4.300314 -3.100854 -21.634805 -13.113681 7.898589 -3.674515 0.000004 -0.000007 0.000000 0.000000 0.000000 -8.629178 -42.378984 2.397402 17.956050 1.079037 -6.320135 14.257639 1.175858 -6.173256 0.000000 0.000000 0.000000 0.000000 0.000000 0.000000 14.271725 1.144401 -6.159651 1.030295 1.366861 -0.531298 -18.064114 21.785732 -7.186366 0.000000 0.000000 0.000000 14.271725 1.144401 -6.159651 0.113022 -10.231136 2.620954 0.000000 0.000000 0.000000 -19.533098 10.946764 -46.589400 -179.999991 -49.272271 179.999991 0.000000 0.000000 0.000000 14.271725 1.144401 -6.159651 11.028373 25.558192 -3.395084 0.000000 0.000000 0.000000 -55.659574 32.942791 57.345954 -179.999704 83.107816 179.999663 0.000000 0.000000 0.000000 
